<?xml version="1.0" encoding="utf-8"?>
<!-- Generator: Adobe Illustrator 15.1.0, SVG Export Plug-In . SVG Version: 6.00 Build 0)  -->
<!DOCTYPE svg PUBLIC "-//W3C//DTD SVG 1.1//EN" "http://www.w3.org/Graphics/SVG/1.1/DTD/svg11.dtd">
<svg version="1.1" id="Layer_1" xmlns="http://www.w3.org/2000/svg" xmlns:xlink="http://www.w3.org/1999/xlink" x="0px" y="0px"
	 width="800px" height="600px" viewBox="0 0 800 600" enable-background="new 0 0 800 600" xml:space="preserve">
<g>
	<g id="XMLID_1_">
		<g>
			<path d="M451.815,220.645c7.265-7.23,22.581-10.44,36.465-7.22c-1.101,2.34-3.404,3.08-5.055,4.41
				c-5.121,4.15-9.322,9.31-12.813,15.83c-4.515,8.43-6.818,18.54-9.389,29.45c-2.522,10.75-5.538,20.38-11.911,26.85
				c-6.193,6.29-14.738,9.43-26.175,10.82c13.201-4.7,17.032-18.59,18.236-35.86C442.332,248.135,442.646,229.785,451.815,220.645z"
				/>
			<path d="M457.961,348.875c1.28,0.71,3.035,1.17,3.784,2.8c-10.071,2.561-23.178,1.98-28.337-5.21
				c-4.059-5.649-4.03-15.239-5.596-23.04c-0.862-4.31-1.802-7.689-3.433-10.819c-1.612-3.11-3.822-5.36-5.415-8.61
				c8.516,4.84,16.69,9.59,27.806,9.62c15.78,0.03,28.46-9.71,40.789-15.03c4.694-2.03,9.54-3.81,15.345-3.81
				c13.789,0,22.969,9.67,30.328,17.831c5.823,6.47,10.878,13.62,15.695,21.239c1.564,2.46,3.225,5.021,4.154,7.82
				c-10.679-6.43-22.306-11.83-37.906-11.83c-14.405,0-27.91,4.57-42.24,5.01c-14.908,0.46-26.602-3.55-36.274-11.22
				C441.327,334.175,448.051,343.385,457.961,348.875z"/>
			<path d="M423.118,302.795c22.533,1.78,31.941-13.99,40.618-30.46c7.72-14.66,15.933-32.74,33.933-33.66
				c8.734-0.45,16.321,2.96,22.922,6.21c4.941,2.43,9.56,5.01,14.083,8.01c1.395,0.93,3.234,1.85,3.794,3.61
				c-26.849,1.23-40.932,17.99-55.242,33.86c-9.986,11.09-23.737,24.22-45.123,19.04c-4.221-1.03-8.27-2.59-12.092-4.41
				C425.006,304.515,423.412,304.095,423.118,302.795z"/>
			<path d="M410.666,371.315c-1.09,0.09-2.304-3.19-3.072-5.011c-2.257-5.39-4.618-12.029-6.316-17.63
				c-4.277-14.149-9.986-43.34,8.668-44.88c8.47-0.71,13.458,6.53,14.074,16.03c0.673,10.14-1.878,20.229-4.324,28.45
				c-1.119,3.75-2.618,7.76-4.154,12.02C414.488,363.195,412.222,371.195,410.666,371.315z"/>
			<path d="M410.306,205.815c0.408,0.27,0.674-0.52,0.721,0c1.271,0.31,2.2,3.05,3.253,5.01c6.449,12.04,13.05,24.24,17.867,37.87
				c2.798,7.93,5.7,17.23,5.235,27.25c-0.711,15.3-10.395,23.32-24.553,24.439c-7.701,0.61-15.259-2.229-20.03-5.61
				c-4.704-3.33-8.659-9.54-9.208-17.43c-0.55-7.78,1.233-15.5,3.243-21.84C392.572,237.445,402.823,220.855,410.306,205.815z"/>
			<path d="M368.247,219.435c8.563,7.92,10.024,21.67,11.01,36.47c1.318,19.7,2.864,39.86,18.958,44.479
				c-11.248-0.91-20.115-4.34-26.175-10.62c-6.449-6.67-9.37-15.94-11.911-26.85c-3.851-16.48-7.862-30.72-17.516-40.67
				c-1.546-1.6-3.101-3.18-4.875-4.61c-1.574-1.27-3.86-2.09-4.865-4.41C345.211,210.195,361.19,212.915,368.247,219.435z"/>
			<path d="M316.447,294.575c8.412-0.64,16.075,2.83,22.381,6.01c11.978,6.05,25.843,15.41,43.501,11.82
				c7.625-1.55,13.836-5.19,20.029-8.61c-1.536,3.19-4.087,5.42-5.775,8.811c-1.574,3.18-2.807,6.939-3.604,11.22
				c-1.565,8.39-1.508,18.18-6.146,23.65c-5.33,6.289-17.725,6.55-27.616,4.199c0.769-1.62,2.523-2.1,3.793-2.8
				c9.692-5.39,16.293-14.31,21.48-25.05c-2.115,0.57-3.727,2.26-5.595,3.41c-5.52,3.399-12.167,6.05-20.219,7.01
				c-10.593,1.27-21.736-0.88-32.311-2.6c-10.802-1.771-22.277-2.641-32.491-0.801c-5.083,0.91-9.702,2.311-13.894,4.2
				c-4.201,1.9-7.795,4.55-11.731,6.22c2.333-5.399,5.728-10.06,9.019-14.829c3.158-4.58,6.43-9.2,10.11-13.631
				C294.123,304.695,304.279,295.505,316.447,294.575z"/>
			<path d="M357.776,272.935c9.066,16.63,17.829,31,40.068,29.86c0.189,1.021-1.631,1.41-2.883,2
				c-8.051,3.78-20.276,7.54-31.229,4.21c-10.868-3.31-19.043-11.32-25.814-18.84c-14.301-15.88-28.403-32.61-55.232-33.86
				c0.322-1.9,2.361-2.37,3.613-3.2c9.019-6,21.575-14.19,35.193-14.63C341.901,237.805,349.753,258.215,357.776,272.935z"/>
		</g>
		<g>
		</g>
	</g>
</g>
<rect x="245.333" y="160.675" fill="none" stroke="#000000" stroke-width="8" stroke-miterlimit="10" width="330.667" height="296"/>
<rect x="287.886" y="384.676" fill="none" width="250.667" height="37.333"/>
<text transform="matrix(1 0 0 1 287.8857 406.5)" font-family="'GillSansMT'" font-size="32">TRANQUIL MIND</text>
</svg>
